<?xml version="1.0" encoding="UTF-8" standalone="no"?>
<!DOCTYPE svg PUBLIC "-//W3C//DTD SVG 1.1//EN" "http://www.w3.org/Graphics/SVG/1.1/DTD/svg11.dtd">
<svg width="100%" height="100%" viewBox="0 0 2084 2084" version="1.1" xmlns="http://www.w3.org/2000/svg" xmlns:xlink="http://www.w3.org/1999/xlink" xml:space="preserve" xmlns:serif="http://www.serif.com/" style="fill-rule:evenodd;clip-rule:evenodd;stroke-linejoin:round;stroke-miterlimit:2;">
    <g id="OBJECTS" transform="matrix(4.16667,0,0,4.16667,0,0)">
        <g transform="matrix(0,40.3652,40.3652,0,132.889,164.608)">
            <circle cx="0.5" cy="0" r="0.5" style="fill:url(#_Linear1);"/>
        </g>
        <g transform="matrix(0,41.1853,41.1853,0,391.731,283.908)">
            <circle cx="0.5" cy="0" r="0.5" style="fill:url(#_Linear2);"/>
        </g>
        <g transform="matrix(6.09884,297.63,297.63,-6.09884,271.78,114.135)">
            <path d="M-0.07,-0.282C-0.054,-0.333 -0.006,-0.367 0.047,-0.368L0.837,-0.384C0.902,-0.385 0.958,-0.336 0.961,-0.271C0.965,-0.203 0.912,-0.146 0.845,-0.145L0.675,-0.142C0.662,-0.141 0.656,-0.125 0.665,-0.116L0.952,0.159C0.998,0.204 1.003,0.278 0.96,0.326C0.915,0.377 0.837,0.38 0.788,0.333L0.524,0.079C0.517,0.073 0.506,0.078 0.507,0.087L0.507,0.088C0.51,0.246 0.384,0.377 0.226,0.38C0.068,0.383 -0.062,0.258 -0.066,0.1L-0.072,-0.215C-0.072,-0.218 -0.072,-0.22 -0.073,-0.222C-0.075,-0.23 -0.076,-0.238 -0.076,-0.246C-0.076,-0.257 -0.074,-0.27 -0.07,-0.282Z" style="fill:url(#_Linear3);fill-rule:nonzero;"/>
        </g>
        <g transform="matrix(10.7669,237.857,237.857,-10.7669,76.6899,146.477)">
            <path d="M-0.019,-0.146C0.112,-0.325 0.544,-0.117 1.005,0.72C1.005,0.72 -0.03,-0.462 -0.019,0.285C-0.019,0.285 -0.072,0.185 -0.077,0.065C-0.081,-0.004 -0.068,-0.08 -0.019,-0.146Z" style="fill:url(#_Linear4);fill-rule:nonzero;"/>
        </g>
        <g transform="matrix(-5.43815,28.8898,28.8898,5.43815,111.305,139.178)">
            <path d="M-0.221,-0.96C0.202,-1.05 0.855,-0.978 1.829,-0.405C0.926,-0.884 0.156,-0.613 -0.221,1.102C-0.221,1.102 -0.449,0.212 -0.27,-0.739C-0.256,-0.812 -0.24,-0.886 -0.221,-0.96Z" style="fill:url(#_Linear5);fill-rule:nonzero;"/>
        </g>
        <g transform="matrix(3.25246,158.724,158.724,-3.25246,298.801,103.91)">
            <path d="M0.99,0.155C0.926,0.374 0.726,0.536 0.485,0.541C0.189,0.547 -0.056,0.312 -0.062,0.016L-0.074,-0.575C-0.074,-0.58 -0.075,-0.584 -0.076,-0.589C-0.076,-0.589 0.182,0.565 0.99,0.155Z" style="fill:url(#_Linear6);fill-rule:nonzero;"/>
        </g>
        <g transform="matrix(-17.0635,36.7932,36.7932,17.0635,421.436,344.788)">
            <path d="M1.046,-3.409C1.046,-3.409 1.857,-1.386 1.369,0.499C0.88,2.384 -0.459,1.321 -0.892,0.017C-0.892,0.017 1.158,2.465 1.046,-3.409Z" style="fill:url(#_Linear7);fill-rule:nonzero;"/>
        </g>
        <g transform="matrix(13.723,22.3165,22.3165,-13.723,424.613,334.928)">
            <path d="M0.823,-1.094C0.825,-1.091 0.827,-1.088 0.829,-1.085C1.488,-0.037 0.823,1.033 0.823,1.033C0.398,1.038 -0.053,0.982 -0.483,0.866C-0.483,0.866 1.791,0.609 0.823,-1.094Z" style="fill:url(#_Linear8);fill-rule:nonzero;"/>
        </g>
        <g transform="matrix(-96.6259,-83.4848,-83.4848,96.6259,185.579,257.538)">
            <path d="M1.436,0.06C1.436,0.06 1.421,0.013 1.399,-0.06C1.415,-0.023 1.428,0.017 1.436,0.06Z" style="fill:url(#_Linear9);fill-rule:nonzero;"/>
        </g>
        <g transform="matrix(-96.6259,-83.4848,-83.4848,96.6259,140.628,309.563)">
            <path d="M-1.048,-0.201C1.156,0.183 1.436,-0.479 1.436,-0.479C1.51,-0.07 0.675,0.248 -1.048,-0.201Z" style="fill:url(#_Linear10);fill-rule:nonzero;"/>
        </g>
        <g transform="matrix(47.6989,88.4627,88.4627,-47.6989,371.295,364.18)">
            <path d="M0.559,0.209C0.924,0.664 0.649,0.879 0.269,0.887C0.407,0.851 0.57,0.721 0.559,0.576C0.51,-0.018 -0.782,-0.631 -0.782,-0.631C-0.782,-0.631 0.068,-0.405 0.559,0.209Z" style="fill:url(#_Linear11);fill-rule:nonzero;"/>
        </g>
    </g>
    <defs>
        <linearGradient id="_Linear1" x1="0" y1="0" x2="1" y2="0" gradientUnits="userSpaceOnUse" gradientTransform="matrix(6.12323e-17,1,-1,6.12323e-17,0.499948,-0.499948)"><stop offset="0" style="stop-color:rgb(0,145,255);stop-opacity:1"/><stop offset="1" style="stop-color:rgb(0,88,255);stop-opacity:1"/></linearGradient>
        <linearGradient id="_Linear2" x1="0" y1="0" x2="1" y2="0" gradientUnits="userSpaceOnUse" gradientTransform="matrix(6.12323e-17,1,-1,6.12323e-17,0.49995,-0.49995)"><stop offset="0" style="stop-color:rgb(0,145,255);stop-opacity:1"/><stop offset="1" style="stop-color:rgb(0,88,255);stop-opacity:1"/></linearGradient>
        <linearGradient id="_Linear3" x1="0" y1="0" x2="1" y2="0" gradientUnits="userSpaceOnUse" gradientTransform="matrix(1,3.46945e-18,-3.46945e-18,1,0,-0.00187748)"><stop offset="0" style="stop-color:rgb(0,222,255);stop-opacity:1"/><stop offset="1" style="stop-color:rgb(0,140,255);stop-opacity:1"/></linearGradient>
        <linearGradient id="_Linear4" x1="0" y1="0" x2="1" y2="0" gradientUnits="userSpaceOnUse" gradientTransform="matrix(0.999694,-0.0247444,0.0247444,0.999694,0.0033525,0.270929)"><stop offset="0" style="stop-color:rgb(0,145,255);stop-opacity:1"/><stop offset="1" style="stop-color:rgb(0,88,255);stop-opacity:1"/></linearGradient>
        <linearGradient id="_Linear5" x1="0" y1="0" x2="1" y2="0" gradientUnits="userSpaceOnUse" gradientTransform="matrix(0.581283,-0.813701,0.813701,0.581283,0.132545,0.257577)"><stop offset="0" style="stop-color:rgb(0,145,255);stop-opacity:1"/><stop offset="1" style="stop-color:rgb(0,88,255);stop-opacity:1"/></linearGradient>
        <linearGradient id="_Linear6" x1="0" y1="0" x2="1" y2="0" gradientUnits="userSpaceOnUse" gradientTransform="matrix(1,0,0,1,0,-0.023562)"><stop offset="0" style="stop-color:rgb(0,222,255);stop-opacity:1"/><stop offset="1" style="stop-color:rgb(0,140,255);stop-opacity:1"/></linearGradient>
        <linearGradient id="_Linear7" x1="0" y1="0" x2="1" y2="0" gradientUnits="userSpaceOnUse" gradientTransform="matrix(1,0,0,1,0,-0.944817)"><stop offset="0" style="stop-color:rgb(0,145,255);stop-opacity:1"/><stop offset="1" style="stop-color:rgb(0,88,255);stop-opacity:1"/></linearGradient>
        <linearGradient id="_Linear8" x1="0" y1="0" x2="1" y2="0" gradientUnits="userSpaceOnUse" gradientTransform="matrix(0.99312,-0.117099,0.117099,0.99312,0.00389875,0.0663599)"><stop offset="0" style="stop-color:rgb(0,145,255);stop-opacity:1"/><stop offset="1" style="stop-color:rgb(0,88,255);stop-opacity:1"/></linearGradient>
        <linearGradient id="_Linear9" x1="0" y1="0" x2="1" y2="0" gradientUnits="userSpaceOnUse" gradientTransform="matrix(1,0,0,1,0,1.29113e-06)"><stop offset="0" style="stop-color:rgb(0,145,255);stop-opacity:1"/><stop offset="1" style="stop-color:rgb(0,88,255);stop-opacity:1"/></linearGradient>
        <linearGradient id="_Linear10" x1="0" y1="0" x2="1" y2="0" gradientUnits="userSpaceOnUse" gradientTransform="matrix(1,0,0,1,0,-0.230601)"><stop offset="0" style="stop-color:rgb(0,145,255);stop-opacity:1"/><stop offset="1" style="stop-color:rgb(0,88,255);stop-opacity:1"/></linearGradient>
        <linearGradient id="_Linear11" x1="0" y1="0" x2="1" y2="0" gradientUnits="userSpaceOnUse" gradientTransform="matrix(0.488086,0.872795,-0.872795,0.488086,0.00809207,-0.0137967)"><stop offset="0" style="stop-color:rgb(0,145,255);stop-opacity:1"/><stop offset="1" style="stop-color:rgb(0,88,255);stop-opacity:1"/></linearGradient>
    </defs>
</svg>
