<?xml version="1.0" encoding="UTF-8" standalone="no"?>
<!DOCTYPE svg PUBLIC "-//W3C//DTD SVG 1.1//EN" "http://www.w3.org/Graphics/SVG/1.1/DTD/svg11.dtd">
<svg width="100%" height="100%" viewBox="0 0 2084 2084" version="1.1" xmlns="http://www.w3.org/2000/svg" xmlns:xlink="http://www.w3.org/1999/xlink" xml:space="preserve" xmlns:serif="http://www.serif.com/" style="fill-rule:evenodd;clip-rule:evenodd;stroke-linejoin:round;stroke-miterlimit:2;">
    <g id="OBJECTS" transform="matrix(4.16667,0,0,4.16667,0,0)">
        <g transform="matrix(0,22.0596,22.0596,0,185.948,164.35)">
            <ellipse cx="0.5" cy="0" rx="0.5" ry="0.5" style="fill:url(#_Linear1);"/>
        </g>
        <g transform="matrix(0,22.5078,22.5078,0,327.405,229.547)">
            <circle cx="0.5" cy="0" r="0.5" style="fill:url(#_Linear2);"/>
        </g>
        <g transform="matrix(3.33302,162.655,162.655,-3.33302,261.852,136.766)">
            <path d="M-0.07,-0.282C-0.054,-0.333 -0.006,-0.367 0.047,-0.368L0.837,-0.384C0.902,-0.385 0.958,-0.336 0.961,-0.271C0.965,-0.203 0.912,-0.146 0.845,-0.145L0.675,-0.142C0.662,-0.141 0.656,-0.125 0.665,-0.116L0.952,0.159C0.998,0.204 1.003,0.278 0.96,0.326C0.915,0.377 0.837,0.38 0.788,0.333L0.524,0.079C0.517,0.073 0.506,0.078 0.507,0.087L0.507,0.088C0.51,0.246 0.384,0.377 0.226,0.38C0.068,0.383 -0.062,0.258 -0.066,0.1L-0.072,-0.215C-0.072,-0.218 -0.072,-0.22 -0.073,-0.222C-0.075,-0.23 -0.076,-0.238 -0.076,-0.246C-0.076,-0.257 -0.074,-0.27 -0.07,-0.282Z" style="fill:url(#_Linear3);fill-rule:nonzero;"/>
        </g>
        <g transform="matrix(5.88411,129.989,129.989,-5.88411,155.235,154.441)">
            <path d="M-0.019,-0.146C0.112,-0.325 0.544,-0.117 1.005,0.72C1.005,0.72 -0.03,-0.462 -0.019,0.285C-0.019,0.285 -0.072,0.185 -0.077,0.065C-0.081,-0.004 -0.068,-0.08 -0.019,-0.146Z" style="fill:url(#_Linear4);fill-rule:nonzero;"/>
        </g>
        <g transform="matrix(-2.97195,15.7883,15.7883,2.97195,174.152,150.452)">
            <path d="M-0.221,-0.96C0.202,-1.05 0.855,-0.978 1.829,-0.405C0.926,-0.884 0.156,-0.613 -0.221,1.102C-0.221,1.102 -0.449,0.212 -0.27,-0.739C-0.256,-0.812 -0.24,-0.886 -0.221,-0.96Z" style="fill:url(#_Linear5);fill-rule:nonzero;"/>
        </g>
        <g transform="matrix(1.77747,86.7426,86.7426,-1.77747,276.619,131.178)">
            <path d="M0.99,0.155C0.926,0.374 0.726,0.536 0.485,0.541C0.189,0.547 -0.056,0.312 -0.062,0.016L-0.074,-0.575C-0.074,-0.58 -0.075,-0.584 -0.076,-0.589C-0.076,-0.589 0.182,0.565 0.99,0.155Z" style="fill:url(#_Linear6);fill-rule:nonzero;"/>
        </g>
        <g transform="matrix(-9.3252,20.1075,20.1075,9.3252,343.639,262.818)">
            <path d="M1.046,-3.409C1.046,-3.409 1.857,-1.386 1.369,0.499C0.88,2.384 -0.459,1.321 -0.892,0.017C-0.892,0.017 1.158,2.465 1.046,-3.409Z" style="fill:url(#_Linear7);fill-rule:nonzero;"/>
        </g>
        <g transform="matrix(7.49963,12.196,12.196,-7.49963,345.375,257.43)">
            <path d="M0.823,-1.094C0.825,-1.091 0.827,-1.088 0.829,-1.085C1.488,-0.037 0.823,1.033 0.823,1.033C0.398,1.038 -0.053,0.982 -0.483,0.866C-0.483,0.866 1.791,0.609 0.823,-1.094Z" style="fill:url(#_Linear8);fill-rule:nonzero;"/>
        </g>
        <g transform="matrix(-52.8061,-45.6245,-45.6245,52.8061,214.743,215.136)">
            <path d="M1.436,0.06C1.436,0.06 1.421,0.013 1.399,-0.06C1.415,-0.023 1.428,0.017 1.436,0.06Z" style="fill:url(#_Linear9);fill-rule:nonzero;"/>
        </g>
        <g transform="matrix(-52.8061,-45.6245,-45.6245,52.8061,190.177,243.568)">
            <path d="M-1.048,-0.201C1.156,0.183 1.436,-0.479 1.436,-0.479C1.51,-0.07 0.675,0.248 -1.048,-0.201Z" style="fill:url(#_Linear10);fill-rule:nonzero;"/>
        </g>
        <g transform="matrix(26.0675,48.3449,48.3449,-26.0675,316.237,273.416)">
            <path d="M0.559,0.209C0.924,0.664 0.649,0.879 0.269,0.887C0.407,0.851 0.57,0.721 0.559,0.576C0.51,-0.018 -0.782,-0.631 -0.782,-0.631C-0.782,-0.631 0.068,-0.405 0.559,0.209Z" style="fill:url(#_Linear11);fill-rule:nonzero;"/>
        </g>
    </g>
    <defs>
        <linearGradient id="_Linear1" x1="0" y1="0" x2="1" y2="0" gradientUnits="userSpaceOnUse" gradientTransform="matrix(0,1,1,0,0.499948,-0.499948)"><stop offset="0" style="stop-color:rgb(0,145,255);stop-opacity:1"/><stop offset="1" style="stop-color:rgb(0,88,255);stop-opacity:1"/></linearGradient>
        <linearGradient id="_Linear2" x1="0" y1="0" x2="1" y2="0" gradientUnits="userSpaceOnUse" gradientTransform="matrix(0,1,1,0,0.49995,-0.49995)"><stop offset="0" style="stop-color:rgb(0,145,255);stop-opacity:1"/><stop offset="1" style="stop-color:rgb(0,88,255);stop-opacity:1"/></linearGradient>
        <linearGradient id="_Linear3" x1="0" y1="0" x2="1" y2="0" gradientUnits="userSpaceOnUse" gradientTransform="matrix(1,3.46945e-18,3.46945e-18,-1,0,-0.00187748)"><stop offset="0" style="stop-color:rgb(0,222,255);stop-opacity:1"/><stop offset="1" style="stop-color:rgb(0,140,255);stop-opacity:1"/></linearGradient>
        <linearGradient id="_Linear4" x1="0" y1="0" x2="1" y2="0" gradientUnits="userSpaceOnUse" gradientTransform="matrix(0.999694,-0.0247444,-0.0247444,-0.999694,0.0033525,0.270929)"><stop offset="0" style="stop-color:rgb(0,145,255);stop-opacity:1"/><stop offset="1" style="stop-color:rgb(0,88,255);stop-opacity:1"/></linearGradient>
        <linearGradient id="_Linear5" x1="0" y1="0" x2="1" y2="0" gradientUnits="userSpaceOnUse" gradientTransform="matrix(0.581283,-0.813701,-0.813701,-0.581283,0.132545,0.257577)"><stop offset="0" style="stop-color:rgb(0,145,255);stop-opacity:1"/><stop offset="1" style="stop-color:rgb(0,88,255);stop-opacity:1"/></linearGradient>
        <linearGradient id="_Linear6" x1="0" y1="0" x2="1" y2="0" gradientUnits="userSpaceOnUse" gradientTransform="matrix(1,0,0,-1,0,-0.023562)"><stop offset="0" style="stop-color:rgb(0,222,255);stop-opacity:1"/><stop offset="1" style="stop-color:rgb(0,140,255);stop-opacity:1"/></linearGradient>
        <linearGradient id="_Linear7" x1="0" y1="0" x2="1" y2="0" gradientUnits="userSpaceOnUse" gradientTransform="matrix(1,0,0,-1,0,-0.944817)"><stop offset="0" style="stop-color:rgb(0,145,255);stop-opacity:1"/><stop offset="1" style="stop-color:rgb(0,88,255);stop-opacity:1"/></linearGradient>
        <linearGradient id="_Linear8" x1="0" y1="0" x2="1" y2="0" gradientUnits="userSpaceOnUse" gradientTransform="matrix(0.99312,-0.117099,-0.117099,-0.99312,0.00389875,0.0663599)"><stop offset="0" style="stop-color:rgb(0,145,255);stop-opacity:1"/><stop offset="1" style="stop-color:rgb(0,88,255);stop-opacity:1"/></linearGradient>
        <linearGradient id="_Linear9" x1="0" y1="0" x2="1" y2="0" gradientUnits="userSpaceOnUse" gradientTransform="matrix(1,0,0,-1,0,1.29113e-06)"><stop offset="0" style="stop-color:rgb(0,145,255);stop-opacity:1"/><stop offset="1" style="stop-color:rgb(0,88,255);stop-opacity:1"/></linearGradient>
        <linearGradient id="_Linear10" x1="0" y1="0" x2="1" y2="0" gradientUnits="userSpaceOnUse" gradientTransform="matrix(1,0,0,-1,0,-0.230601)"><stop offset="0" style="stop-color:rgb(0,145,255);stop-opacity:1"/><stop offset="1" style="stop-color:rgb(0,88,255);stop-opacity:1"/></linearGradient>
        <linearGradient id="_Linear11" x1="0" y1="0" x2="1" y2="0" gradientUnits="userSpaceOnUse" gradientTransform="matrix(0.488086,0.872795,0.872795,-0.488086,0.00809207,-0.0137967)"><stop offset="0" style="stop-color:rgb(0,145,255);stop-opacity:1"/><stop offset="1" style="stop-color:rgb(0,88,255);stop-opacity:1"/></linearGradient>
    </defs>
</svg>
